<svg width="25" height="25" viewBox="0 0 25 25" fill="none" xmlns="http://www.w3.org/2000/svg">
<g clip-path="url(#clip0_698_277)">
<path d="M20.0489 6.05957C21.0596 6.82129 22.2949 7.55859 23.6719 7.74414C24.3115 7.83203 24.9024 7.37793 24.9903 6.73828C25.0781 6.09863 24.624 5.50781 23.9844 5.41992C23.208 5.31738 22.3633 4.86816 21.46 4.18945C19.585 2.77344 17.041 2.77344 15.1612 4.18945C13.9893 5.07324 13.1739 5.47363 12.5 5.47363C11.8262 5.47363 11.0108 5.07324 9.83889 4.18945C7.96389 2.77344 5.41994 2.77344 3.54006 4.18945C2.63674 4.86816 1.79202 5.31738 1.01565 5.41992C0.376 5.50781 -0.0781018 6.09375 0.0097888 6.73828C0.0976794 7.38281 0.683617 7.83203 1.32815 7.74414C2.7051 7.55859 3.94534 6.82129 4.9512 6.05957C5.99123 5.27344 7.38772 5.27344 8.42776 6.05957C9.6094 6.95312 10.9815 7.8125 12.5 7.8125C14.0186 7.8125 15.3858 6.94824 16.5723 6.05957C17.6123 5.27344 19.0088 5.27344 20.0489 6.05957ZM20.0489 13.0908C21.0596 13.8525 22.2949 14.5898 23.6719 14.7754C24.3115 14.8633 24.9024 14.4092 24.9903 13.7695C25.0781 13.1299 24.624 12.5391 23.9844 12.4512C23.208 12.3486 22.3633 11.8994 21.46 11.2207C19.585 9.80469 17.041 9.80469 15.1612 11.2207C13.9893 12.1045 13.1739 12.5049 12.5 12.5049C11.8262 12.5049 11.0108 12.1045 9.83889 11.2207C7.96389 9.80469 5.41994 9.80469 3.54006 11.2207C2.63674 11.8994 1.79202 12.3486 1.01565 12.4512C0.376 12.5342 -0.0781018 13.125 0.0097888 13.7695C0.0976794 14.4141 0.683617 14.8633 1.32815 14.7754C2.7051 14.5898 3.94534 13.8525 4.9512 13.0908C5.99123 12.3047 7.38772 12.3047 8.42776 13.0908C9.6094 13.9844 10.9815 14.8437 12.5 14.8437C14.0186 14.8437 15.3858 13.9795 16.5723 13.0908C17.6123 12.3047 19.0088 12.3047 20.0489 13.0908ZM16.5723 20.1221C17.6123 19.3359 19.0088 19.3359 20.0489 20.1221C21.0596 20.8838 22.2949 21.6211 23.6719 21.8066C24.3115 21.8945 24.9024 21.4404 24.9903 20.8008C25.0781 20.1611 24.624 19.5703 23.9844 19.4824C23.208 19.3799 22.3633 18.9307 21.46 18.252C19.585 16.8359 17.041 16.8359 15.1612 18.252C13.9893 19.1357 13.1739 19.5361 12.5 19.5361C11.8262 19.5361 11.0108 19.1357 9.83889 18.252C7.96389 16.8359 5.41994 16.8359 3.54006 18.252C2.63674 18.9307 1.79202 19.3799 1.01565 19.4824C0.376 19.5703 -0.0781018 20.1563 0.0097888 20.8008C0.0976794 21.4453 0.683617 21.8945 1.32815 21.8066C2.7051 21.6211 3.94534 20.8838 4.9512 20.1221C5.99123 19.3359 7.38772 19.3359 8.42776 20.1221C9.6094 21.0156 10.9815 21.875 12.5 21.875C14.0186 21.875 15.3858 21.0107 16.5723 20.1221Z" fill="#383838"/>
</g>
<defs>
<clipPath id="clip0_698_277">
<rect width="25" height="25" fill="white"/>
</clipPath>
</defs>
</svg>
