<svg width="28" height="28" viewBox="0 0 28 28" fill="none" xmlns="http://www.w3.org/2000/svg">
<path d="M18.6666 2.33337V7.00004M9.33325 2.33337V7.00004" stroke="white" stroke-width="1.75" stroke-linecap="round" stroke-linejoin="round"/>
<path d="M15.1667 4.66663H12.8333C8.43355 4.66663 6.23367 4.66663 4.86683 6.03346C3.5 7.4003 3.5 9.60018 3.5 14V16.3333C3.5 20.733 3.5 22.933 4.86683 24.2998C6.23367 25.6666 8.43355 25.6666 12.8333 25.6666H15.1667C19.5664 25.6666 21.7664 25.6666 23.1331 24.2998C24.5 22.933 24.5 20.733 24.5 16.3333V14C24.5 9.60018 24.5 7.4003 23.1331 6.03346C21.7664 4.66663 19.5664 4.66663 15.1667 4.66663Z" stroke="white" stroke-width="1.75" stroke-linecap="round" stroke-linejoin="round"/>
<path d="M3.5 11.6666H24.5" stroke="white" stroke-width="1.75" stroke-linecap="round" stroke-linejoin="round"/>
<path d="M13.9947 16.3334H14.0052M13.9947 21H14.0052M18.6561 16.3334H18.6666M9.33325 16.3334H9.34372M9.33325 21H9.34372" stroke="white" stroke-width="1.75" stroke-linecap="round" stroke-linejoin="round"/>
</svg>
