<svg width="38" height="38" viewBox="0 0 38 38" fill="none" xmlns="http://www.w3.org/2000/svg">
<path d="M26.125 11.875H11.875V26.125H26.125V11.875Z" fill="black"/>
<path fill-rule="evenodd" clip-rule="evenodd" d="M13.0625 3.5625C13.3774 3.5625 13.6795 3.68761 13.9022 3.91031C14.1249 4.13301 14.25 4.43506 14.25 4.75V5.9375H17.8125V4.75C17.8125 4.43506 17.9376 4.13301 18.1603 3.91031C18.383 3.68761 18.6851 3.5625 19 3.5625C19.3149 3.5625 19.617 3.68761 19.8397 3.91031C20.0624 4.13301 20.1875 4.43506 20.1875 4.75V5.9375H23.75V4.75C23.75 4.43506 23.8751 4.13301 24.0978 3.91031C24.3205 3.68761 24.6226 3.5625 24.9375 3.5625C25.2524 3.5625 25.5545 3.68761 25.7772 3.91031C25.9999 4.13301 26.125 4.43506 26.125 4.75V5.9375H27.3125C28.5723 5.9375 29.7805 6.43795 30.6713 7.32874C31.5621 8.21954 32.0625 9.42772 32.0625 10.6875V11.875H33.25C33.5649 11.875 33.867 12.0001 34.0897 12.2228C34.3124 12.4455 34.4375 12.7476 34.4375 13.0625C34.4375 13.3774 34.3124 13.6795 34.0897 13.9022C33.867 14.1249 33.5649 14.25 33.25 14.25H32.0625V17.8125H33.25C33.5649 17.8125 33.867 17.9376 34.0897 18.1603C34.3124 18.383 34.4375 18.6851 34.4375 19C34.4375 19.3149 34.3124 19.617 34.0897 19.8397C33.867 20.0624 33.5649 20.1875 33.25 20.1875H32.0625V23.75H33.25C33.5649 23.75 33.867 23.8751 34.0897 24.0978C34.3124 24.3205 34.4375 24.6226 34.4375 24.9375C34.4375 25.2524 34.3124 25.5545 34.0897 25.7772C33.867 25.9999 33.5649 26.125 33.25 26.125H32.0625V27.3125C32.0625 28.5723 31.5621 29.7805 30.6713 30.6713C29.7805 31.5621 28.5723 32.0625 27.3125 32.0625H26.125V33.25C26.125 33.5649 25.9999 33.867 25.7772 34.0897C25.5545 34.3124 25.2524 34.4375 24.9375 34.4375C24.6226 34.4375 24.3205 34.3124 24.0978 34.0897C23.8751 33.867 23.75 33.5649 23.75 33.25V32.0625H20.1875V33.25C20.1875 33.5649 20.0624 33.867 19.8397 34.0897C19.617 34.3124 19.3149 34.4375 19 34.4375C18.6851 34.4375 18.383 34.3124 18.1603 34.0897C17.9376 33.867 17.8125 33.5649 17.8125 33.25V32.0625H14.25V33.25C14.25 33.5649 14.1249 33.867 13.9022 34.0897C13.6795 34.3124 13.3774 34.4375 13.0625 34.4375C12.7476 34.4375 12.4455 34.3124 12.2228 34.0897C12.0001 33.867 11.875 33.5649 11.875 33.25V32.0625H10.6875C9.42772 32.0625 8.21954 31.5621 7.32874 30.6713C6.43795 29.7805 5.9375 28.5723 5.9375 27.3125V26.125H4.75C4.43506 26.125 4.13301 25.9999 3.91031 25.7772C3.68761 25.5545 3.5625 25.2524 3.5625 24.9375C3.5625 24.6226 3.68761 24.3205 3.91031 24.0978C4.13301 23.8751 4.43506 23.75 4.75 23.75H5.9375V20.1875H4.75C4.43506 20.1875 4.13301 20.0624 3.91031 19.8397C3.68761 19.617 3.5625 19.3149 3.5625 19C3.5625 18.6851 3.68761 18.383 3.91031 18.1603C4.13301 17.9376 4.43506 17.8125 4.75 17.8125H5.9375V14.25H4.75C4.43506 14.25 4.13301 14.1249 3.91031 13.9022C3.68761 13.6795 3.5625 13.3774 3.5625 13.0625C3.5625 12.7476 3.68761 12.4455 3.91031 12.2228C4.13301 12.0001 4.43506 11.875 4.75 11.875H5.9375V10.6875C5.9375 9.42772 6.43795 8.21954 7.32874 7.32874C8.21954 6.43795 9.42772 5.9375 10.6875 5.9375H11.875V4.75C11.875 4.43506 12.0001 4.13301 12.2228 3.91031C12.4455 3.68761 12.7476 3.5625 13.0625 3.5625ZM9.5 10.6875C9.5 10.3726 9.62511 10.0705 9.84781 9.84781C10.0705 9.62511 10.3726 9.5 10.6875 9.5H27.3125C27.6274 9.5 27.9295 9.62511 28.1522 9.84781C28.3749 10.0705 28.5 10.3726 28.5 10.6875V27.3125C28.5 27.6274 28.3749 27.9295 28.1522 28.1522C27.9295 28.3749 27.6274 28.5 27.3125 28.5H10.6875C10.3726 28.5 10.0705 28.3749 9.84781 28.1522C9.62511 27.9295 9.5 27.6274 9.5 27.3125V10.6875Z" fill="black"/>
</svg>
