<svg width="29" height="29" viewBox="0 0 29 29" fill="none" xmlns="http://www.w3.org/2000/svg">
<path d="M16.2521 13.9563L18.7292 11.4792M12.0834 15.7084C12.0834 16.3494 12.338 16.964 12.7912 17.4173C13.2444 17.8705 13.8591 18.1251 14.5 18.1251C15.141 18.1251 15.7557 17.8705 16.2089 17.4173C16.6621 16.964 16.9167 16.3494 16.9167 15.7084C16.9167 15.0675 16.6621 14.4528 16.2089 13.9996C15.7557 13.5464 15.141 13.2917 14.5 13.2917C13.8591 13.2917 13.2444 13.5464 12.7912 13.9996C12.338 14.4528 12.0834 15.0675 12.0834 15.7084Z" stroke="#383838" stroke-width="2" stroke-linecap="round" stroke-linejoin="round"/>
<path d="M7.73333 24.1667C5.96693 22.7627 4.68098 20.8441 4.05369 18.6766C3.4264 16.5091 3.48885 14.2002 4.23236 12.0699C4.97588 9.93947 6.36365 8.09311 8.20336 6.78665C10.0431 5.48018 12.2436 4.77832 14.5 4.77832C16.7564 4.77832 18.9569 5.48018 20.7966 6.78665C22.6363 8.09311 24.0241 9.93947 24.7676 12.0699C25.5112 14.2002 25.5736 16.5091 24.9463 18.6766C24.319 20.8441 23.0331 22.7627 21.2667 24.1667H7.73333Z" stroke="#383838" stroke-width="2" stroke-linecap="round" stroke-linejoin="round"/>
</svg>
