<svg width="28" height="28" viewBox="0 0 28 28" fill="none" xmlns="http://www.w3.org/2000/svg">
<path d="M20.9908 14H21.0013" stroke="#383838" stroke-width="1.5" stroke-linecap="round" stroke-linejoin="round"/>
<path d="M15.1666 18.7154C14.6259 18.8938 14.1078 19.0992 13.6384 19.4279M13.6384 19.4279C12.4241 20.2779 11.6666 21.6724 11.6666 23.1985C11.6666 23.2731 11.729 23.3336 11.8044 23.3333C15.2077 23.3182 16.7318 22.742 17.3723 21.7912L18.6666 19.6662C21.5734 19.0793 24.2453 17.2229 25.6666 14.0971C22.1666 6.40016 11.0833 6.40016 7.58329 14.0971M13.6384 19.4279C11.1065 18.6575 8.84901 16.8807 7.58329 14.0971M7.58329 14.0971C7.19444 13.3275 5.13329 10.6335 2.33329 10.6335C3.30548 11.5956 4.89996 15.2517 3.49996 17.5609C4.89996 17.5609 6.99996 14.8669 7.58329 14.0971ZM13.6384 8.76652C12.4241 7.91654 11.6666 6.5219 11.6666 4.99583C11.6666 4.03149 16.693 5.39469 17.3723 6.40316L18.6666 8.52808" stroke="#383838" stroke-width="1.5" stroke-linecap="round" stroke-linejoin="round"/>
</svg>
