<svg width="30" height="30" viewBox="0 0 30 30" fill="none" xmlns="http://www.w3.org/2000/svg">
<path d="M7.50903 15H7.49854" stroke="white" stroke-width="1.5" stroke-linecap="round" stroke-linejoin="round"/>
<path d="M13.75 20.0522C14.3294 20.2434 14.8845 20.4635 15.3874 20.8156M15.3874 20.8156C16.6884 21.7264 17.5 23.2205 17.5 24.8556C17.5 24.9355 17.4331 25.0004 17.3524 25C13.706 24.9839 12.073 24.3665 11.3867 23.3477L10 21.071C6.8856 20.4421 4.02285 18.4531 2.5 15.1041C6.25 6.85736 18.125 6.85736 21.875 15.1041M15.3874 20.8156C18.1001 19.9902 20.5189 18.0865 21.875 15.1041M21.875 15.1041C22.2916 14.2795 24.5 11.3931 27.5 11.3931C26.4584 12.4239 24.75 16.3411 26.25 18.8152C24.75 18.8152 22.5 15.9289 21.875 15.1041ZM15.3874 9.39275C16.6884 8.48205 17.5 6.9878 17.5 5.35272C17.5 4.3195 12.1146 5.78007 11.3867 6.86057L10 9.13727" stroke="white" stroke-width="1.5" stroke-linecap="round" stroke-linejoin="round"/>
</svg>
