<svg width="25" height="25" viewBox="0 0 25 25" fill="none" xmlns="http://www.w3.org/2000/svg">
<path d="M11.9792 20.8333C11.1112 20.8333 10.3733 20.5295 9.76567 19.9219C9.15803 19.3142 8.85421 18.5764 8.85421 17.7083H10.9375C10.9375 18.0035 11.0375 18.251 11.2375 18.451C11.4375 18.651 11.6848 18.7507 11.9792 18.75C12.2737 18.7493 12.5212 18.6493 12.7219 18.45C12.9226 18.2507 13.0223 18.0035 13.0209 17.7083C13.0195 17.4132 12.9195 17.166 12.7209 16.9667C12.5223 16.7674 12.275 16.6674 11.9792 16.6667H2.08337V14.5833H11.9792C12.8473 14.5833 13.5851 14.8872 14.1927 15.4948C14.8004 16.1024 15.1042 16.8403 15.1042 17.7083C15.1042 18.5764 14.8004 19.3142 14.1927 19.9219C13.5851 20.5295 12.8473 20.8333 11.9792 20.8333ZM2.08337 10.4167V8.33333H16.1459C16.5973 8.33333 16.9705 8.18577 17.2657 7.89063C17.5608 7.59549 17.7084 7.22222 17.7084 6.77083C17.7084 6.31945 17.5608 5.94618 17.2657 5.65104C16.9705 5.3559 16.5973 5.20833 16.1459 5.20833C15.6945 5.20833 15.3212 5.3559 15.0261 5.65104C14.7309 5.94618 14.5834 6.31945 14.5834 6.77083H12.5C12.5 5.74653 12.8518 4.88264 13.5552 4.17917C14.2587 3.4757 15.1223 3.12431 16.1459 3.125C17.1695 3.1257 18.0334 3.47743 18.7375 4.18021C19.4417 4.88299 19.7931 5.74653 19.7917 6.77083C19.7903 7.79514 19.4389 8.65903 18.7375 9.3625C18.0362 10.066 17.1723 10.4174 16.1459 10.4167H2.08337ZM19.2709 18.75V16.6667C19.7223 16.6667 20.0955 16.5191 20.3907 16.224C20.6858 15.9288 20.8334 15.5556 20.8334 15.1042C20.8334 14.6528 20.6858 14.2795 20.3907 13.9844C20.0955 13.6892 19.7223 13.5417 19.2709 13.5417H2.08337V11.4583H19.2709C20.2952 11.4583 21.1591 11.8101 21.8625 12.5135C22.566 13.217 22.9174 14.0806 22.9167 15.1042C22.916 16.1278 22.5646 16.9917 21.8625 17.6958C21.1605 18.4 20.2966 18.7514 19.2709 18.75Z" fill="#383838"/>
</svg>
