<svg width="29" height="29" viewBox="0 0 29 29" fill="none" xmlns="http://www.w3.org/2000/svg">
<path d="M13.9168 23.8333C12.9446 23.8333 12.1182 23.4931 11.4377 22.8125C10.7571 22.1319 10.4168 21.3056 10.4168 20.3333H12.7502C12.7502 20.6639 12.8622 20.9412 13.0862 21.1652C13.3102 21.3892 13.5871 21.5008 13.9168 21.5C14.2466 21.4992 14.5239 21.3872 14.7487 21.164C14.9734 20.9408 15.0851 20.6639 15.0835 20.3333C15.0819 20.0028 14.9699 19.7259 14.7475 19.5027C14.5251 19.2794 14.2482 19.1674 13.9168 19.1667H2.8335V16.8333H13.9168C14.8891 16.8333 15.7154 17.1736 16.396 17.8542C17.0766 18.5347 17.4168 19.3611 17.4168 20.3333C17.4168 21.3056 17.0766 22.1319 16.396 22.8125C15.7154 23.4931 14.8891 23.8333 13.9168 23.8333ZM2.8335 12.1667V9.83333H18.5835C19.0891 9.83333 19.5071 9.66806 19.8377 9.3375C20.1682 9.00695 20.3335 8.58889 20.3335 8.08333C20.3335 7.57778 20.1682 7.15972 19.8377 6.82917C19.5071 6.49861 19.0891 6.33333 18.5835 6.33333C18.0779 6.33333 17.6599 6.49861 17.3293 6.82917C16.9988 7.15972 16.8335 7.57778 16.8335 8.08333H14.5002C14.5002 6.93611 14.8941 5.96856 15.682 5.18067C16.4699 4.39278 17.4371 3.99922 18.5835 4C19.7299 4.00078 20.6975 4.39472 21.4862 5.18183C22.2748 5.96895 22.6684 6.93611 22.6668 8.08333C22.6653 9.23056 22.2717 10.1981 21.4862 10.986C20.7006 11.7739 19.7331 12.1674 18.5835 12.1667H2.8335ZM22.0835 21.5V19.1667C22.5891 19.1667 23.0071 19.0014 23.3377 18.6708C23.6682 18.3403 23.8335 17.9222 23.8335 17.4167C23.8335 16.9111 23.6682 16.4931 23.3377 16.1625C23.0071 15.8319 22.5891 15.6667 22.0835 15.6667H2.8335V13.3333H22.0835C23.2307 13.3333 24.1983 13.7273 24.9862 14.5152C25.7741 15.3031 26.1676 16.2702 26.1668 17.4167C26.1661 18.5631 25.7725 19.5307 24.9862 20.3193C24.1998 21.108 23.2323 21.5016 22.0835 21.5Z" fill="white"/>
</svg>
