<svg width="30" height="30" viewBox="0 0 30 30" fill="none" xmlns="http://www.w3.org/2000/svg">
<path d="M15 15H19.6667C22.142 15 24.516 14.0167 26.2663 12.2663C28.0167 10.516 29 8.14202 29 5.66667V4.11111H24.3333C21.858 4.11111 19.484 5.09444 17.7337 6.84478C15.9833 8.59512 15 10.9691 15 13.4444H10.3333C7.85798 13.4444 5.48401 12.4611 3.73367 10.7108C1.98333 8.96043 1 6.58647 1 4.11111V1H5.66667C8.14202 1 10.516 1.98333 12.2663 3.73367C14.0167 5.48401 15 7.85798 15 10.3333V19.6667M7.22222 19.6667H22.7778V25.8889C22.7778 26.714 22.45 27.5053 21.8666 28.0888C21.2831 28.6722 20.4918 29 19.6667 29H10.3333C9.50822 29 8.71689 28.6722 8.13345 28.0888C7.55 27.5053 7.22222 26.714 7.22222 25.8889V19.6667Z" stroke="white" stroke-width="2" stroke-linecap="round" stroke-linejoin="round"/>
</svg>
