<svg width="28" height="28" viewBox="0 0 28 28" fill="none" xmlns="http://www.w3.org/2000/svg">
<path d="M22.1666 17.5V22.0371C22.1666 24.6328 21.3084 25.6667 18.537 25.6667H9.46288C6.86712 25.6667 5.83325 24.8085 5.83325 22.0371V17.5C5.83325 12.9897 9.4896 9.33337 13.9999 9.33337C18.5103 9.33337 22.1666 12.9897 22.1666 17.5Z" stroke="white" stroke-width="1.5" stroke-linecap="round"/>
<path d="M18.6666 17.5C18.6666 14.9228 16.5772 12.8334 13.9999 12.8334C11.4226 12.8334 9.33325 14.9228 9.33325 17.5" stroke="white" stroke-width="1.5" stroke-linecap="round"/>
<path d="M14 19.8333L15.1667 17.5" stroke="white" stroke-width="1.5" stroke-linecap="round"/>
<path d="M19.0312 5.83337H8.9689C7.93804 5.83337 7.4226 5.83337 6.96906 5.65599C6.81841 5.59708 6.6743 5.5242 6.53885 5.43843C6.13107 5.18025 5.84516 4.77502 5.27335 3.96455C4.82769 3.33292 4.60487 3.01709 4.68168 2.75886C4.706 2.67716 4.74887 2.60144 4.80733 2.53702C4.99212 2.33337 5.39382 2.33337 6.19723 2.33337H21.803C22.6064 2.33337 23.008 2.33337 23.1928 2.53702C23.2513 2.60144 23.2942 2.67716 23.3185 2.75886C23.3953 3.01709 23.1724 3.33292 22.7269 3.96455C22.155 4.77501 21.8691 5.18026 21.4613 5.43843C21.3258 5.5242 21.1817 5.59708 21.0311 5.65599C20.5775 5.83337 20.0621 5.83337 19.0312 5.83337Z" stroke="white" stroke-width="1.5" stroke-linecap="round"/>
<path d="M16.3334 9.33337V5.83337M11.6667 9.33337V5.83337" stroke="white" stroke-width="1.5" stroke-linecap="round"/>
</svg>
