<svg width="25" height="25" viewBox="0 0 25 25" fill="none" xmlns="http://www.w3.org/2000/svg">
<path d="M15.3646 22.9167L15.7812 19.5833C16.0069 19.4965 16.2194 19.3924 16.4187 19.2708C16.6181 19.1493 16.8135 19.0191 17.0052 18.8802L20.1042 20.1823L22.9688 15.2344L20.2865 13.2031C20.3038 13.0816 20.3125 12.9646 20.3125 12.8521V12.149C20.3125 12.0358 20.3038 11.9184 20.2865 11.7969L22.9688 9.76562L20.1042 4.81771L17.0052 6.11979C16.8142 5.9809 16.6146 5.85069 16.4062 5.72917C16.1979 5.60764 15.9896 5.50347 15.7812 5.41667L15.3646 2.08333H9.63542L9.21875 5.41667C8.99305 5.50347 8.78021 5.60764 8.58021 5.72917C8.38021 5.85069 8.18507 5.9809 7.99479 6.11979L4.89583 4.81771L2.03125 9.76562L4.71354 11.7969C4.69618 11.9184 4.6875 12.0358 4.6875 12.149V12.851C4.6875 12.9642 4.70486 13.0816 4.73958 13.2031L2.05729 15.2344L4.92188 20.1823L7.99479 18.8802C8.18576 19.0191 8.38542 19.1493 8.59375 19.2708C8.80208 19.3924 9.01042 19.4965 9.21875 19.5833L9.63542 22.9167H15.3646ZM12.4479 16.1458C11.441 16.1458 10.5816 15.7899 9.86979 15.0781C9.15799 14.3663 8.80208 13.5069 8.80208 12.5C8.80208 11.4931 9.15799 10.6337 9.86979 9.92187C10.5816 9.21007 11.441 8.85417 12.4479 8.85417C13.4722 8.85417 14.3361 9.21007 15.0396 9.92187C15.7431 10.6337 16.0944 11.4931 16.0937 12.5C16.0931 13.5069 15.7413 14.3663 15.0385 15.0781C14.3358 15.7899 13.4722 16.1458 12.4479 16.1458Z" fill="#1C1C1C"/>
</svg>
