<svg width="29" height="29" viewBox="0 0 29 29" fill="none" xmlns="http://www.w3.org/2000/svg">
<path d="M11.1773 26.5833L10.6939 22.7167C10.4321 22.616 10.1856 22.4951 9.95445 22.3542C9.72325 22.2132 9.49649 22.0622 9.27415 21.901L5.67936 23.4115L2.35645 17.6719L5.4679 15.3156C5.44776 15.1747 5.4377 15.0389 5.4377 14.9084V14.0928C5.4377 13.9615 5.44776 13.8254 5.4679 13.6844L2.35645 11.3281L5.67936 5.58855L9.27415 7.09896C9.49568 6.93785 9.72728 6.78681 9.96895 6.64584C10.2106 6.50487 10.4523 6.38403 10.6939 6.28334L11.1773 2.41667H17.8231L18.3064 6.28334C18.5683 6.38403 18.8152 6.50487 19.0472 6.64584C19.2792 6.78681 19.5055 6.93785 19.7262 7.09896L23.321 5.58855L26.6439 11.3281L23.5325 13.6844C23.5526 13.8254 23.5627 13.9615 23.5627 14.0928V14.9072C23.5627 15.0385 23.5426 15.1747 23.5023 15.3156L26.6137 17.6719L23.2908 23.4115L19.7262 21.901C19.5047 22.0622 19.2731 22.2132 19.0314 22.3542C18.7898 22.4951 18.5481 22.616 18.3064 22.7167L17.8231 26.5833H11.1773ZM14.5606 18.7292C15.7287 18.7292 16.7255 18.3163 17.5512 17.4906C18.3769 16.6649 18.7898 15.6681 18.7898 14.5C18.7898 13.3319 18.3769 12.3351 17.5512 11.5094C16.7255 10.6837 15.7287 10.2708 14.5606 10.2708C13.3724 10.2708 12.3703 10.6837 11.5543 11.5094C10.7383 12.3351 10.3306 13.3319 10.3314 14.5C10.3323 15.6681 10.7403 16.6649 11.5555 17.4906C12.3707 18.3163 13.3724 18.7292 14.5606 18.7292Z" fill="#838789"/>
</svg>
