<svg width="25" height="25" viewBox="0 0 25 25" fill="none" xmlns="http://www.w3.org/2000/svg">
<path d="M9.37504 16.6667V11.4583C9.37504 10.9058 9.15555 10.3759 8.76485 9.98519C8.37415 9.59449 7.84424 9.375 7.29171 9.375C6.73917 9.375 6.20927 9.59449 5.81857 9.98519C5.42787 10.3759 5.20837 10.9058 5.20837 11.4583M15.625 16.6667V11.4583C15.625 10.9058 15.8445 10.3759 16.2352 9.98519C16.6259 9.59449 17.1558 9.375 17.7084 9.375C18.2609 9.375 18.7908 9.59449 19.1815 9.98519C19.5722 10.3759 19.7917 10.9058 19.7917 11.4583" stroke="#383838" stroke-width="2" stroke-linecap="round" stroke-linejoin="round"/>
<path d="M12.5 16.6667V6.25M12.5 6.25C12.5 5.4212 12.8292 4.62634 13.4153 4.04029C14.0013 3.45424 14.7962 3.125 15.625 3.125C16.4538 3.125 17.2487 3.45424 17.8347 4.04029C18.4208 4.62634 18.75 5.4212 18.75 6.25M12.5 6.25C12.5 5.4212 12.1708 4.62634 11.5847 4.04029C10.9987 3.45424 10.2038 3.125 9.375 3.125C8.5462 3.125 7.75134 3.45424 7.16529 4.04029C6.57924 4.62634 6.25 5.4212 6.25 6.25M3.125 16.6667H21.875V18.75C21.875 19.5788 21.5458 20.3737 20.9597 20.9597C20.3737 21.5458 19.5788 21.875 18.75 21.875H6.25C5.4212 21.875 4.62634 21.5458 4.04029 20.9597C3.45424 20.3737 3.125 19.5788 3.125 18.75V16.6667Z" stroke="#383838" stroke-width="2" stroke-linecap="round" stroke-linejoin="round"/>
</svg>
