<svg width="29" height="29" viewBox="0 0 29 29" fill="none" xmlns="http://www.w3.org/2000/svg">
<path d="M10.8748 19.3333V13.2917C10.8748 12.6507 10.6202 12.036 10.167 11.5828C9.7138 11.1296 9.09911 10.875 8.45817 10.875C7.81723 10.875 7.20254 11.1296 6.74933 11.5828C6.29612 12.036 6.0415 12.6507 6.0415 13.2917M18.1248 19.3333V13.2917C18.1248 12.6507 18.3794 12.036 18.8327 11.5828C19.2859 11.1296 19.9006 10.875 20.5415 10.875C21.1824 10.875 21.7971 11.1296 22.2503 11.5828C22.7036 12.036 22.9582 12.6507 22.9582 13.2917" stroke="white" stroke-width="2" stroke-linecap="round" stroke-linejoin="round"/>
<path d="M14.5 19.3333V7.25M14.5 7.25C14.5 6.28859 14.8819 5.36656 15.5617 4.68674C16.2416 4.00692 17.1636 3.625 18.125 3.625C19.0864 3.625 20.0084 4.00692 20.6883 4.68674C21.3681 5.36656 21.75 6.28859 21.75 7.25M14.5 7.25C14.5 6.28859 14.1181 5.36656 13.4383 4.68674C12.7584 4.00692 11.8364 3.625 10.875 3.625C9.91359 3.625 8.99156 4.00692 8.31174 4.68674C7.63192 5.36656 7.25 6.28859 7.25 7.25M3.625 19.3333H25.375V21.75C25.375 22.7114 24.9931 23.6334 24.3133 24.3133C23.6334 24.9931 22.7114 25.375 21.75 25.375H7.25C6.28859 25.375 5.36656 24.9931 4.68674 24.3133C4.00692 23.6334 3.625 22.7114 3.625 21.75V19.3333Z" stroke="white" stroke-width="2" stroke-linecap="round" stroke-linejoin="round"/>
</svg>
