<svg width="29" height="29" viewBox="0 0 29 29" fill="none" xmlns="http://www.w3.org/2000/svg">
<path d="M10.9998 6.33337C10.9998 5.40512 11.3686 4.51488 12.025 3.8585C12.6813 3.20212 13.5716 2.83337 14.4998 2.83337C15.4281 2.83337 16.3183 3.20212 16.9747 3.8585C17.6311 4.51488 17.9998 5.40512 17.9998 6.33337V15.6667C18.9793 16.4013 19.7028 17.4254 20.0678 18.5941C20.4329 19.7627 20.421 21.0166 20.0338 22.178C19.6467 23.3395 18.9039 24.3498 17.9106 25.0656C16.9174 25.7815 15.7242 26.1667 14.4998 26.1667C13.2755 26.1667 12.0822 25.7815 11.089 25.0656C10.0958 24.3498 9.35301 23.3395 8.96585 22.178C8.57869 21.0166 8.56679 19.7627 8.93184 18.5941C9.29689 17.4254 10.0204 16.4013 10.9998 15.6667V6.33337ZM14.4998 5.16671C14.1904 5.16671 13.8937 5.28962 13.6749 5.50842C13.4561 5.72721 13.3332 6.02396 13.3332 6.33337V16.2909C13.3332 16.4957 13.2793 16.6968 13.1769 16.8742C13.0745 17.0515 12.9272 17.1988 12.7498 17.3012C12.0825 17.6863 11.5608 18.2809 11.2659 18.9928C10.9709 19.7046 10.9191 20.4939 11.1184 21.2382C11.3178 21.9825 11.7572 22.6402 12.3685 23.1093C12.9797 23.5784 13.7287 23.8326 14.4993 23.8326C15.2698 23.8326 16.0188 23.5784 16.6301 23.1093C17.2413 22.6402 17.6807 21.9825 17.8801 21.2382C18.0794 20.4939 18.0276 19.7046 17.7326 18.9928C17.4377 18.2809 16.916 17.6863 16.2487 17.3012C16.0715 17.1987 15.9245 17.0513 15.8223 16.874C15.7201 16.6967 15.6664 16.4955 15.6665 16.2909V6.33337C15.6665 6.02396 15.5436 5.72721 15.3248 5.50842C15.106 5.28962 14.8093 5.16671 14.4998 5.16671Z" fill="white"/>
</svg>
