<svg width="29" height="29" viewBox="0 0 29 29" fill="none" xmlns="http://www.w3.org/2000/svg">
<g clip-path="url(#clip0_456_344)">
<path d="M14.5 25C13.6833 25 12.9931 24.718 12.4292 24.1541C11.8653 23.5902 11.5833 22.9 11.5833 22.0833C11.5833 21.2666 11.8653 20.5764 12.4292 20.0125C12.9931 19.4486 13.6833 19.1666 14.5 19.1666C15.3167 19.1666 16.0069 19.4486 16.5708 20.0125C17.1347 20.5764 17.4167 21.2666 17.4167 22.0833C17.4167 22.9 17.1347 23.5902 16.5708 24.1541C16.0069 24.718 15.3167 25 14.5 25ZM7.90833 18.4083L5.45833 15.9C6.60556 14.7527 7.95228 13.8439 9.4985 13.1735C11.0447 12.503 12.7119 12.1674 14.5 12.1666C16.2881 12.1658 17.9557 12.5061 19.5027 13.1875C21.0497 13.8688 22.396 14.7924 23.5417 15.9583L21.0917 18.4083C20.2361 17.5527 19.2444 16.8819 18.1167 16.3958C16.9889 15.9097 15.7833 15.6666 14.5 15.6666C13.2167 15.6666 12.0111 15.9097 10.8833 16.3958C9.75556 16.8819 8.76389 17.5527 7.90833 18.4083ZM2.95 13.45L0.5 11C2.28889 9.17218 4.37917 7.74302 6.77083 6.71246C9.1625 5.6819 11.7389 5.16663 14.5 5.16663C17.2611 5.16663 19.8375 5.6819 22.2292 6.71246C24.6208 7.74302 26.7111 9.17218 28.5 11L26.05 13.45C24.5528 11.9527 22.8176 10.7814 20.8443 9.93596C18.8711 9.09052 16.7563 8.6674 14.5 8.66663C12.2437 8.66585 10.1293 9.08896 8.15683 9.93596C6.18439 10.783 4.44878 11.9543 2.95 13.45Z" fill="white"/>
</g>
<defs>
<clipPath id="clip0_456_344">
<rect width="28" height="28" fill="white" transform="translate(0.5 0.5)"/>
</clipPath>
</defs>
</svg>
